<svg version="1.1" id="Layer_1" xmlns="http://www.w3.org/2000/svg" xmlns:xlink="http://www.w3.org/1999/xlink" x="0px" y="0px"
	 width="100%" viewBox="0 0 156 114" enable-background="new 0 0 156 114" xml:space="preserve">
<path fill="#1B2233" opacity="1.000000" stroke="none" 
	d="
M114.000000,115.000000 
	C76.000008,115.000000 38.500008,115.000000 1.000010,115.000000 
	C1.000007,77.000008 1.000007,39.000019 1.000003,1.000020 
	C52.999985,1.000014 104.999969,1.000014 156.999969,1.000007 
	C156.999969,38.999981 156.999969,76.999962 156.999985,114.999969 
	C142.833328,115.000000 128.666672,115.000000 114.000000,115.000000 
M93.932350,98.964005 
	C111.491844,98.964005 129.051346,98.964005 146.832977,98.964005 
	C146.832977,92.894814 146.832977,87.441315 146.843491,81.504234 
	C146.661743,81.154617 146.386475,81.049194 145.085358,81.066322 
	C134.530670,81.066322 123.975983,81.066322 112.888687,81.066322 
	C112.888687,60.812344 112.888687,40.107563 112.888687,19.164679 
	C105.908386,19.164679 99.457275,19.164679 92.524742,19.174456 
	C92.178795,19.360153 92.078217,19.635494 92.115059,20.931776 
	C92.151146,46.619942 92.187233,72.308113 92.189323,98.476357 
	C92.362045,98.820198 92.633469,98.939430 93.932350,98.964005 
M29.518049,18.997112 
	C25.752039,18.997112 21.986029,18.997112 17.999470,18.997112 
	C17.999470,23.883776 18.183491,28.198092 17.942150,32.488480 
	C17.743513,36.019718 19.072191,37.172226 22.548937,37.062687 
	C29.295937,36.850117 36.054371,37.000500 43.191338,37.000500 
	C43.191338,58.006199 43.191338,78.388962 43.191338,99.000259 
	C45.899452,99.000259 48.207745,99.000252 50.516037,99.000259 
	C63.893196,99.000282 63.893173,99.000282 63.893204,85.868431 
	C63.893234,71.056816 63.886013,56.245190 63.905048,41.433598 
	C63.906876,40.012440 64.072327,38.591496 64.172577,36.999699 
	C71.040260,36.999699 77.522873,37.173161 83.982048,36.861298 
	C85.364006,36.794575 87.716599,35.059925 87.814514,33.936161 
	C88.240028,29.052660 87.997108,24.110916 87.997108,18.997114 
	C68.420387,18.997114 49.466003,18.997114 29.518049,18.997112 
z"/>
<path fill="#FFFFFF" opacity="1.000000" stroke="none" 
	d="
M30.014835,18.997112 
	C49.466003,18.997114 68.420387,18.997114 87.997108,18.997114 
	C87.997108,24.110916 88.240028,29.052660 87.814514,33.936161 
	C87.716599,35.059925 85.364006,36.794575 83.982048,36.861298 
	C77.522873,37.173161 71.040260,36.999699 64.172577,36.999699 
	C64.072327,38.591496 63.906876,40.012440 63.905048,41.433598 
	C63.886013,56.245190 63.893234,71.056816 63.893204,85.868431 
	C63.893173,99.000282 63.893196,99.000282 50.516037,99.000259 
	C48.207745,99.000252 45.899452,99.000259 43.191338,99.000259 
	C43.191338,78.388962 43.191338,58.006199 43.191338,37.000500 
	C36.054371,37.000500 29.295937,36.850117 22.548937,37.062687 
	C19.072191,37.172226 17.743513,36.019718 17.942150,32.488480 
	C18.183491,28.198092 17.999470,23.883776 17.999470,18.997112 
	C21.986029,18.997112 25.752039,18.997112 30.014835,18.997112 
z"/>
<path fill="#6DDF58" opacity="1.000000" stroke="none" 
	d="
M146.832977,81.987823 
	C146.832977,87.441315 146.832977,92.894814 146.832977,98.964005 
	C129.051346,98.964005 111.491844,98.964005 93.367249,98.733612 
	C92.647980,98.289955 92.455040,98.120979 92.223320,97.996277 
	C92.187233,72.308113 92.151146,46.619942 92.328720,20.356491 
	C92.736221,19.605217 92.890823,19.399710 93.006172,19.164679 
	C99.457275,19.164679 105.908386,19.164679 112.888687,19.164679 
	C112.888687,40.107563 112.888687,60.812344 112.888687,81.066322 
	C123.975983,81.066322 134.530670,81.066322 145.657761,81.288559 
	C146.397964,81.711693 146.598892,81.870705 146.832977,81.987823 
z"/>
<path fill="#60C451" opacity="1.000000" stroke="none" 
	d="
M92.765457,19.169567 
	C92.890823,19.399710 92.736221,19.605217 92.382698,19.890842 
	C92.078217,19.635494 92.178795,19.360153 92.765457,19.169567 
z"/>
<path fill="#67D455" opacity="1.000000" stroke="none" 
	d="
M146.838226,81.746033 
	C146.598892,81.870705 146.397964,81.711693 146.123932,81.349380 
	C146.386475,81.049194 146.661743,81.154617 146.838226,81.746033 
z"/>
<path fill="#60C451" opacity="1.000000" stroke="none" 
	d="
M92.206322,98.236313 
	C92.455040,98.120979 92.647980,98.289955 92.902863,98.668640 
	C92.633469,98.939430 92.362045,98.820198 92.206322,98.236313 
z"/>
</svg>